<svg width="1920" height="371" viewBox="0 0 1920 371" fill="none" xmlns="http://www.w3.org/2000/svg">
<mask id="mask0_93_394" style="mask-type:alpha" maskUnits="userSpaceOnUse" x="0" y="0" width="1920" height="371">
<rect width="1920" height="371" fill="white"/>
</mask>
<g mask="url(#mask0_93_394)">
<g opacity="0.2">
<path d="M-107.511 8.24684C-147.112 8.24684 -182.319 4.78517 -212.471 -2.09923C-254.851 -11.7646 -287.122 -28.2366 -308.371 -51.029C-334.304 -78.8583 -341.886 -116.684 -349.215 -153.264C-351.704 -165.672 -354.211 -178.215 -357.458 -190.467C-357.652 -190.739 -357.847 -191.031 -358.061 -191.303C-392.315 -238.775 -428.144 -259.486 -466.091 -281.404C-492.783 -296.825 -520.389 -312.772 -548.461 -338.987L-548.519 -339.046V-339.124C-548.519 -339.24 -548.441 -339.318 -548.344 -339.357C-548.325 -339.357 -548.286 -339.376 -548.247 -339.376C-545.486 -339.376 -506.353 -320.493 -470.971 -302.037C-442.393 -287.14 -393.17 -260.556 -384.597 -249.899C-370.697 -232.59 -362.785 -212.054 -357.108 -190.623C-340.681 -167.48 -332.419 -142.179 -324.409 -117.714C-309.926 -73.3741 -296.259 -31.5037 -236.266 -9.72258C-186.693 8.26631 -152.108 -7.36943 -115.463 -23.9386C-92.1146 -34.4986 -67.9501 -45.4281 -39.0032 -47.6257C-2.04681 -50.4455 23.673 -43.0944 48.5568 -35.9767C66.8697 -30.7453 84.1717 -25.7862 104.526 -25.4751C105.187 -25.4556 105.867 -25.4556 106.548 -25.4556C128.749 -25.4556 151.63 -31.037 178.361 -42.9389C243.856 -72.1101 296.753 -114.408 347.901 -155.326C378.987 -180.199 411.122 -205.908 445.648 -228.254C484.335 -253.321 522.069 -271.466 560.969 -283.737C651.601 -312.325 726.641 -334.417 798.726 -337.548C872.095 -340.718 941.206 -323.993 1022.86 -283.271C1042.18 -273.644 1060.16 -263.337 1077.56 -253.36C1126.59 -225.259 1172.92 -198.732 1238.04 -193.637C1297.78 -188.97 1351.44 -210.848 1403.33 -232.007C1428.15 -242.139 1453.83 -252.602 1479.51 -259.797C1508.27 -267.849 1534.2 -270.902 1558.77 -269.152C1614.24 -265.165 1662.02 -229.848 1704.19 -198.674C1743.96 -169.27 1778.31 -143.871 1808.43 -153.167C1819.26 -156.493 1828.94 -164.058 1838.03 -176.251C1847.79 -189.32 1856.64 -207.367 1865.06 -231.424C1873.3 -254.955 1878.41 -275.919 1881.89 -295.056C1881.68 -301.318 1881.31 -307.502 1880.94 -313.628C1879.87 -331.267 1878.76 -349.489 1881.87 -368.314C1885.37 -389.356 1893.95 -409.154 1908.12 -428.835C1929.09 -457.986 1961.73 -483.054 2005.16 -503.318C2039.9 -519.538 2081.59 -532.295 2122.51 -539.277C2128.59 -540.307 2134.83 -541.26 2141.25 -542.116C2191.5 -553.94 2250.89 -565.142 2310.96 -572.649C2409.62 -584.959 2544.85 -591.824 2628.82 -554.582C2663.5 -539.199 2686.48 -517.34 2697.09 -489.627L2697.21 -489.297L2696.86 -489.375C2611.3 -506.566 2510.27 -525.702 2409.6 -537.293C2354.65 -543.614 2303.96 -547.153 2258.98 -547.795C2215.55 -548.417 2176.07 -546.375 2141.33 -541.727C2096.11 -531.089 2058.28 -519.927 2033.99 -510.495C1971.42 -486.185 1934.67 -463.257 1914.86 -436.127C1896.24 -410.632 1893.21 -382.725 1889.38 -347.389C1887.71 -331.947 1885.82 -314.6 1882.28 -295.211C1883 -273.819 1881.8 -251.416 1871.88 -226.464C1833.47 -129.83 1778.2 -135.003 1708.23 -141.557C1656.66 -146.38 1598.2 -151.864 1532.41 -118.726C1520.55 -112.755 1509.12 -106.94 1498.08 -101.32C1405.7 -54.3351 1338.61 -20.2242 1272.65 -20.2242C1271.79 -20.2242 1270.94 -20.2243 1270.06 -20.2437C1235.88 -20.7104 1202.08 -30.5898 1166.68 -50.4845C1130.25 -70.9627 1089.94 -103.187 1043.46 -149.025C1000.29 -191.615 964.709 -222.011 931.505 -244.745C895.307 -269.502 860.372 -285.954 824.699 -295.036C753.352 -313.22 672.441 -304.352 554.165 -265.379C479.786 -240.875 419.812 -194.493 361.84 -149.628C332.427 -126.874 302.002 -103.343 270.237 -83.1367C234.622 -60.4805 200.951 -44.4363 167.26 -34.0514C108.881 -16.0625 12.9612 4.39632 -81.1502 7.79958C-90.1706 8.09132 -98.9382 8.24684 -107.511 8.24684ZM-356.816 -189.553C-353.686 -177.613 -351.237 -165.399 -348.826 -153.323C-341.497 -116.8 -333.935 -79.0333 -308.079 -51.2818C-286.889 -28.5477 -254.695 -12.1147 -212.393 -2.46873C-175.767 5.89369 -131.637 9.19978 -81.228 7.37172C12.8445 3.9684 108.725 -16.4709 167.085 -34.4598C200.737 -44.8253 234.388 -60.8694 269.964 -83.5062C301.711 -103.712 332.135 -127.224 361.529 -149.978C419.54 -194.862 479.533 -241.264 553.971 -265.787C672.324 -304.779 753.294 -313.647 824.738 -295.445C860.469 -286.343 895.443 -269.871 931.68 -245.095C964.923 -222.361 1000.52 -191.926 1043.7 -149.336C1090.14 -103.518 1130.42 -71.3127 1166.81 -50.854C1202.16 -30.9982 1235.9 -21.1188 1270.02 -20.652C1270.88 -20.6326 1271.73 -20.6327 1272.59 -20.6327C1338.45 -20.6327 1405.5 -54.724 1497.85 -101.69C1508.91 -107.31 1520.34 -113.125 1532.18 -119.095C1598.04 -152.292 1656.58 -146.808 1708.19 -141.965C1778.02 -135.431 1833.16 -130.258 1871.45 -226.64C1881.08 -250.832 1882.48 -272.633 1881.89 -293.442C1878.39 -274.675 1873.32 -254.002 1865.37 -231.307C1856.93 -207.211 1848.09 -189.145 1838.29 -176.037C1829.13 -163.785 1819.39 -156.181 1808.49 -152.817C1804.15 -151.475 1799.72 -150.853 1795.21 -150.853C1768.2 -150.853 1738.05 -173.14 1703.91 -198.382C1661.81 -229.518 1614.06 -264.795 1558.71 -268.782C1534.18 -270.552 1508.3 -267.479 1479.59 -259.447C1453.93 -252.252 1428.27 -241.789 1403.44 -231.676C1356.32 -212.462 1307.72 -192.645 1254.41 -192.645C1248.99 -192.645 1243.51 -192.859 1237.96 -193.287C1172.74 -198.382 1126.4 -224.948 1077.31 -253.049C1059.91 -263.006 1041.93 -273.313 1022.62 -282.94C941.031 -323.624 871.959 -340.349 798.688 -337.179C726.661 -334.048 651.64 -311.956 561.028 -283.387C522.147 -271.135 484.452 -252.991 445.784 -227.942C411.297 -205.597 379.162 -179.888 348.076 -155.034C296.909 -114.097 243.992 -71.76 178.439 -42.5889C150.853 -30.298 127.349 -24.7361 104.448 -25.0861C84.0551 -25.3973 66.7336 -30.3563 48.3818 -35.5877C23.5368 -42.686 -2.16345 -50.0372 -39.0421 -47.2368C-67.9306 -45.0392 -92.0563 -34.1291 -115.385 -23.5886C-152.089 -6.99992 -186.751 8.6747 -236.48 -9.37254C-296.648 -31.212 -310.354 -73.1797 -324.856 -117.617C-332.652 -141.751 -340.817 -166.702 -356.816 -189.553ZM-547.839 -338.949C-519.922 -312.967 -492.453 -297.078 -465.878 -281.734C-427.891 -259.797 -392.023 -239.066 -357.73 -191.517C-363.387 -212.54 -371.241 -232.668 -384.888 -249.646C-393.384 -260.225 -442.413 -286.713 -470.874 -301.551C-509.658 -321.796 -543.659 -337.918 -547.839 -338.949ZM1916.3 -438.772C1913.5 -435.447 1910.88 -432.063 1908.39 -428.621C1894.28 -408.979 1885.7 -389.24 1882.22 -368.256C1879.09 -349.489 1880.22 -331.267 1881.29 -313.667C1881.62 -308.124 1881.97 -302.523 1882.18 -296.864C1885.45 -315.184 1887.26 -331.811 1888.95 -347.447C1892.8 -382.842 1895.83 -410.787 1914.51 -436.361C1915.1 -437.178 1915.68 -437.975 1916.3 -438.772ZM2137.26 -541.202C2132.25 -540.502 2127.35 -539.724 2122.55 -538.907C2081.64 -531.945 2040 -519.168 2005.3 -502.968C1977.83 -490.153 1954.68 -475.411 1936.07 -458.92C1957.69 -476.889 1989.2 -493.536 2033.82 -510.864C2057.4 -520.043 2093.77 -530.837 2137.26 -541.202ZM2243.76 -548.339C2248.77 -548.339 2253.83 -548.3 2258.94 -548.223C2303.95 -547.581 2354.63 -544.041 2409.6 -537.702C2510.15 -526.13 2611.07 -507.033 2696.55 -489.861C2685.91 -517.321 2663.07 -538.985 2628.62 -554.251C2544.75 -591.454 2409.6 -584.589 2310.98 -572.279C2252.41 -564.967 2194.5 -554.135 2145.08 -542.641C2174.76 -546.433 2207.81 -548.339 2243.76 -548.339Z" fill="url(#paint0_linear_93_394)"/>
<path d="M-124.853 50.6034C-155.938 50.6034 -186.615 47.7252 -216.826 41.9882C-250.866 35.5121 -277.13 23.8243 -299.448 5.23254C-319.88 -11.8034 -335.432 -33.0012 -353.434 -57.5439C-361.891 -69.0568 -370.619 -80.9781 -380.651 -93.5412C-400.791 -118.803 -426.608 -144.241 -453.941 -171.156C-494.086 -210.712 -535.591 -251.61 -558.201 -292.333L-558.706 -293.247L-557.909 -292.586C-531.82 -270.844 -506.392 -257.328 -481.819 -244.24C-449.528 -227.067 -419.046 -210.868 -388.757 -177.826C-369.356 -156.648 -358.138 -130.491 -347.291 -105.19C-338.795 -85.3732 -330.008 -64.895 -317.372 -47.1395C-303.239 -27.2642 -285.606 -12.9314 -263.502 -3.3244C-224.368 13.6727 -177.128 22.424 -123.064 22.6379C-122.325 22.6379 -121.606 22.6379 -120.867 22.6379C-72.4604 22.6379 -19.9322 15.9286 35.3177 2.66547C86.524 -9.62531 139.169 -27.517 187.556 -49.1037C213.082 -60.4804 237.227 -72.7907 259.253 -85.5871C291.31 -107.952 322.843 -132.786 353.325 -159.74C390.845 -192.898 442.227 -238.308 497.476 -267.635C526.968 -283.29 554.593 -293.053 581.887 -297.467C612.759 -302.465 643.086 -300.248 672.013 -290.874C701.952 -281.17 724.075 -265.496 742.563 -246.573C766.883 -235.741 791.65 -221.428 817.525 -203.264C852.266 -178.877 885.8 -149.939 918.208 -121.973C966.478 -80.2975 1016.4 -37.2213 1071.96 -7.60284C1101.88 8.34406 1130.95 19.1957 1160.83 25.5551C1194.4 32.7117 1228.11 34.0731 1263.9 29.7169C1301.13 25.1855 1335.05 10.1138 1367.61 -16.4125C1396.6 -40.0217 1421.7 -70.1458 1445.98 -99.2781C1472.61 -131.25 1500.16 -164.31 1532.43 -187.92C1549.79 -200.619 1567.15 -209.72 1585.52 -215.71C1606.09 -222.419 1627.42 -225.103 1650.65 -223.917C1669.45 -222.944 1691.4 -205.986 1714.63 -188.036C1743.22 -165.925 1772.81 -143.054 1798.22 -149.511C1831.81 -158.029 1850.83 -169.581 1858.08 -185.858C1864.73 -200.774 1861.29 -218.316 1857.32 -238.619C1853.16 -259.953 1848.44 -284.126 1854.5 -310.847C1864.22 -353.709 1881.66 -390.698 1906.29 -420.764C1928.86 -448.321 1958.22 -470.938 1993.54 -487.994C2052.91 -516.679 2130.85 -530.973 2231.8 -531.712C2241.41 -531.79 2255.62 -532.276 2273.58 -532.918C2327.45 -534.823 2417.59 -537.993 2498.45 -532.704C2543.04 -529.787 2580.2 -524.594 2608.83 -517.243C2642.68 -508.569 2665.62 -496.687 2677.05 -481.907C2685.78 -470.608 2687.97 -457.364 2683.56 -442.565L2683.5 -442.37L2683.31 -442.448C2600.78 -471.872 2504.22 -495.851 2411.37 -509.97C2303.6 -526.364 2208.08 -528.211 2135.18 -515.318C2091.77 -507.636 2056.72 -496.24 2028.05 -480.468C2001.53 -465.882 1980.3 -447.368 1963.11 -423.915C1930.4 -379.224 1915.04 -319.521 1897.27 -250.385C1895 -241.517 1892.64 -232.357 1890.19 -223.061C1874.93 -164.758 1858.02 -132.572 1835.35 -118.706C1813.97 -105.618 1788.56 -109.099 1756.37 -113.494C1721.94 -118.201 1679.09 -124.054 1624.95 -111.55C1546.17 -93.3467 1489.51 -61.0444 1434.7 -29.8313C1388.67 -3.59662 1345.18 21.1989 1293.74 33.6258C1236.31 47.5113 1176.12 44.283 1104.33 23.4548C1051.3 8.0719 1006.66 -8.80853 967.917 -28.1199C921.163 -51.4179 881.99 -78.5472 848.164 -111.044C824.038 -134.206 806.289 -160.246 789.142 -185.411C774.367 -207.075 759.981 -228.156 742.31 -246.262C730.043 -251.727 717.893 -256.277 705.801 -259.992C635.718 -281.462 575.122 -280.412 515.07 -256.666C460.928 -235.255 412.036 -197.177 360.266 -156.882C344.033 -144.241 327.236 -131.172 309.798 -118.201C294.771 -107.038 277.838 -95.9915 259.428 -85.276C250.057 -78.7417 240.648 -72.4213 231.22 -66.3342C185.34 -36.7157 138.605 -12.3091 92.2783 6.24371C18.5016 35.7844 -54.2253 50.6034 -124.853 50.6034ZM-557.365 -291.652C-534.658 -251.279 -493.503 -210.712 -453.669 -171.467C-426.336 -144.532 -400.519 -119.076 -380.359 -93.8134C-370.328 -81.2308 -361.579 -69.3096 -353.142 -57.7968C-335.16 -33.2735 -319.627 -12.0757 -299.214 4.92133C-276.936 23.4742 -250.749 35.1426 -216.767 41.5992C-117.99 60.4049 -14.0417 48.3864 92.1423 5.87421C138.43 -12.6592 185.165 -37.0658 231.006 -66.6648C239.171 -71.935 247.297 -77.3609 255.384 -82.9618C234.447 -70.9821 211.662 -59.4692 187.673 -48.7731C139.266 -27.1864 86.5823 -9.27527 35.3566 3.0155C-19.9322 16.2787 -72.4799 23.0074 -120.926 23.0074C-121.664 23.0074 -122.384 23.0074 -123.122 23.0074C-177.225 22.774 -224.524 14.0227 -263.716 -2.99377C-285.898 -12.6397 -303.569 -27.0114 -317.741 -46.945C-330.397 -64.72 -339.184 -85.2371 -347.699 -105.054C-358.547 -130.316 -369.744 -156.454 -389.107 -177.574C-419.337 -210.556 -449.8 -226.756 -482.052 -243.909C-506.353 -256.88 -531.528 -270.26 -557.365 -291.652ZM743.282 -245.834C760.662 -227.865 774.873 -207.036 789.473 -185.625C806.619 -160.479 824.368 -134.459 848.455 -111.316C882.262 -78.8388 921.396 -51.7291 968.111 -28.4504C1006.84 -9.1391 1051.45 7.72186 1104.47 23.1048C1176.18 43.9136 1236.29 47.1418 1293.66 33.2758C1345.04 20.8488 1388.49 -3.90778 1434.53 -30.1424C1489.35 -61.3944 1546.04 -93.6967 1624.87 -111.919C1679.07 -124.443 1721.96 -118.589 1756.42 -113.864C1788.54 -109.469 1813.89 -106.007 1835.16 -119.017C1857.73 -132.825 1874.58 -164.952 1889.82 -223.139C1892.25 -232.435 1894.61 -241.595 1896.9 -250.443C1933.1 -391.204 1957.01 -484.182 2135.12 -515.668C2208.07 -528.561 2303.62 -526.714 2411.43 -510.32C2504.22 -496.201 2600.74 -472.261 2683.23 -442.856C2687.53 -457.461 2685.33 -470.511 2676.72 -481.654C2655.66 -508.88 2595.67 -525.916 2498.39 -532.295C2417.56 -537.585 2327.41 -534.395 2273.56 -532.509C2255.58 -531.867 2241.39 -531.381 2231.78 -531.303C2130.89 -530.564 2053.01 -516.27 1993.69 -487.624C1958.41 -470.588 1929.09 -447.99 1906.56 -420.492C1881.97 -390.465 1864.57 -353.554 1854.85 -310.73C1848.8 -284.087 1853.51 -259.953 1857.67 -238.658C1861.66 -218.277 1865.08 -200.677 1858.39 -185.664C1851.08 -169.27 1831.99 -157.64 1798.26 -149.103C1772.68 -142.607 1743.01 -165.536 1714.33 -187.706C1691.16 -205.617 1669.25 -222.556 1650.59 -223.508C1627.36 -224.695 1606.13 -222.031 1585.6 -215.321C1567.29 -209.351 1549.97 -200.269 1532.62 -187.589C1500.39 -163.999 1472.86 -130.958 1446.25 -99.0059C1421.97 -69.8542 1396.87 -39.7106 1367.85 -16.0819C1335.23 10.4833 1301.22 25.594 1263.94 30.1252C1228.11 34.4815 1194.34 33.1202 1160.75 25.9635C1130.83 19.5847 1101.73 8.73303 1071.77 -7.23334C1016.17 -36.8712 966.226 -79.9668 917.936 -121.643C885.528 -149.608 852.013 -178.546 817.273 -202.914C791.767 -220.864 767.291 -235.06 743.282 -245.834ZM613.731 -299.684C603.213 -299.684 592.599 -298.828 581.926 -297.098C554.67 -292.683 527.104 -282.94 497.632 -267.304C442.421 -237.997 391.059 -192.606 353.559 -159.468C324.301 -133.622 294.09 -109.683 263.355 -88.0375C280.151 -97.9752 295.665 -108.204 309.545 -118.512C326.983 -131.464 343.78 -144.552 360.013 -157.173C411.802 -197.488 460.715 -235.566 514.915 -256.997C575.044 -280.781 635.737 -281.851 705.898 -260.342C717.718 -256.725 729.577 -252.291 741.552 -247.001C723.239 -265.573 701.349 -280.956 671.858 -290.505C653.02 -296.611 633.56 -299.684 613.731 -299.684Z" fill="url(#paint1_linear_93_394)"/>
<path d="M1237.48 54.5513C1229.86 54.5513 1222.2 54.3374 1214.48 53.9095C1182.81 52.1593 1150.52 46.9668 1116.79 38.1766C1097.51 35.5123 1077.81 31.7977 1057.54 27.0136C982.128 9.27756 878.841 -15.0122 809.769 -56.1436C778.936 -74.502 753.216 -101.301 728.352 -127.224C711.069 -145.232 693.204 -163.863 673.841 -179.382C652.145 -196.768 630.78 -208.378 608.521 -214.854C580.876 -222.906 554.865 -225.375 529.029 -222.4C522.166 -221.603 515.362 -220.436 508.577 -218.861C489.292 -213.376 469.113 -204.605 447.068 -192.179C436.045 -185.975 424.38 -178.799 411.627 -170.3C387.171 -152.058 363.59 -130.725 339.192 -108.652C296.579 -70.1069 252.526 -30.2591 201.029 -5.91092C154.76 15.948 67.8417 34.2482 -25.842 41.8327C-71.9549 45.5666 -116.882 46.4223 -155.763 44.3219C-198.396 42.0271 -232.456 36.3679 -257.048 27.5388C-289.727 15.7925 -325.401 -7.79733 -366.09 -44.5724C-401.977 -77.0108 -437.008 -115.206 -470.893 -152.136C-503.748 -187.939 -534.755 -221.758 -564.013 -247.604L-563.78 -247.915C-539.751 -233.777 -521.244 -224.228 -504.895 -215.788C-462.864 -194.104 -439.711 -182.144 -390.876 -126.077C-373.632 -106.279 -360.899 -89.9044 -349.662 -75.4744C-330.377 -50.6983 -316.439 -32.7873 -295.326 -18.8046C-273.728 -4.51071 -244.956 5.79651 -196.024 16.726C-102.438 37.632 -10.6395 37.807 76.8038 17.2316C162.731 -2.99371 244.206 -43.1527 318.935 -102.137C356.669 -131.911 386.199 -153.828 411.414 -170.631C427.141 -182.358 443.218 -192.82 460.112 -201.358C476.423 -209.604 492.383 -215.535 508.48 -219.23C521.875 -223.042 534.841 -225.239 547.692 -225.959C579.107 -227.729 611.69 -220.689 650.221 -203.867C684.261 -188.989 724.075 -166.216 783.369 -127.71C870.501 -71.0988 964.573 -13.9426 1061.99 20.7906C1080.77 27.4805 1099 33.1397 1116.87 37.7876C1169.55 45.0804 1219.3 44.5748 1270 36.4652C1329.59 26.9165 1384.08 7.87735 1441.31 -12.5814C1453.29 -22.2079 1464.8 -32.3593 1476.17 -42.3942C1506.15 -68.8428 1537.13 -96.1859 1574.52 -111.802C1599.77 -122.343 1622.71 -126.621 1644.66 -124.852C1664.24 -123.276 1681.23 -117.15 1697.67 -111.238C1720.93 -102.876 1744.95 -94.2217 1776.76 -98.189C1824.37 -104.14 1853.84 -119.173 1869.49 -145.485C1883.64 -169.308 1885.33 -200.599 1887.1 -233.738C1889.01 -269.366 1891.19 -309.758 1909.13 -348.594C1954 -445.637 2043.95 -470.472 2137.13 -473.972C2203.19 -491.981 2300.02 -493.692 2397.26 -478.484C2401.96 -477.745 2406.65 -476.967 2411.33 -476.17C2448.52 -477.978 2488.57 -478.99 2525.39 -477.376C2558.71 -475.917 2586.03 -472.358 2606.56 -466.835C2630.55 -460.378 2646.18 -450.985 2653 -438.908C2660.8 -425.14 2657.37 -407.501 2642.81 -386.497L2642.7 -386.323L2642.54 -386.459C2615.73 -408.24 2579.57 -427.473 2535.07 -443.634C2498.1 -457.053 2455.58 -468.08 2411.33 -475.781C2386.94 -474.595 2363.78 -473.078 2343.57 -471.755C2314 -469.81 2290.67 -468.294 2279.7 -468.916C2272.43 -469.324 2265.18 -469.771 2257.48 -470.238C2219.09 -472.591 2177.82 -475.12 2137.19 -473.583C2136.04 -473.272 2134.91 -472.961 2133.78 -472.63C2075.73 -456.022 2035.38 -431.168 2006.76 -394.393C1980.59 -360.749 1966.17 -320.415 1949.47 -273.702C1942.84 -255.188 1936 -236.033 1927.95 -215.963C1915.19 -184.225 1902.93 -159.799 1890.43 -141.304C1878.59 -123.782 1866.15 -111.063 1852.44 -102.448C1825.96 -85.801 1795.62 -85.0037 1757.2 -84.0118C1726.41 -83.2145 1688.07 -82.2032 1641.24 -72.5573C1567.95 -57.4466 1507.2 -35.7238 1448.45 -14.7011C1446.15 -13.8843 1443.84 -13.0481 1441.55 -12.2313C1419.54 5.44641 1396 21.3545 1368.9 31.4088C1327.45 46.8112 1283.36 54.5513 1237.48 54.5513ZM1120.1 38.6433C1152.64 46.9279 1183.88 51.8286 1214.52 53.54C1268.62 56.5349 1320.51 48.9893 1368.74 31.0782C1395.43 21.16 1418.68 5.58261 1440.4 -11.8034C1383.54 8.51917 1329.34 27.3831 1270.06 36.8735C1220.37 44.8275 1171.61 45.4694 1120.1 38.6433ZM-562.264 -246.554C-533.433 -220.864 -502.892 -187.57 -470.602 -152.37C-436.717 -115.439 -401.685 -77.2635 -365.817 -44.8446C-325.167 -8.1084 -289.552 15.4619 -256.912 27.1888C-232.358 36.0179 -198.318 41.6576 -155.743 43.9524C-116.882 46.0528 -71.9743 45.1777 -25.8615 41.4632C67.764 33.8787 154.643 15.598 200.873 -6.24149C252.313 -30.5508 296.365 -70.3792 338.959 -108.905C361.529 -129.324 383.4 -149.102 405.912 -166.411C381.981 -150.153 354.084 -129.344 319.188 -101.806C244.4 -42.7833 162.886 -2.60471 76.901 17.6401C-10.6006 38.235 -102.457 38.0599 -196.102 17.1344C-245.092 6.18552 -273.903 -4.12164 -295.54 -18.4544C-316.711 -32.476 -330.669 -50.4066 -349.973 -75.2216C-361.21 -89.6516 -373.943 -106.026 -391.168 -125.804C-439.944 -181.813 -463.078 -193.754 -505.07 -215.418C-521.03 -223.664 -539.052 -232.96 -562.264 -246.554ZM550.258 -223.975C569.232 -223.975 588.497 -221.078 608.657 -215.204C630.975 -208.709 652.379 -197.079 674.113 -179.654C693.495 -164.116 711.38 -145.485 728.663 -127.458C753.508 -101.553 779.208 -74.7743 809.983 -56.4354C879.016 -15.3623 982.264 8.92752 1057.65 26.6636C1076.76 31.156 1095.35 34.7149 1113.58 37.3404C1096.75 32.848 1079.53 27.461 1061.87 21.1794C964.418 -13.5537 870.345 -70.7486 783.174 -127.36C723.9 -165.866 684.105 -188.62 650.085 -203.497C611.592 -220.319 579.088 -227.32 547.73 -225.57C537.271 -224.986 526.735 -223.411 515.945 -220.786C520.28 -221.603 524.635 -222.264 529.009 -222.769C536.066 -223.567 543.142 -223.975 550.258 -223.975ZM1635 -124.832C1616.02 -124.832 1596.2 -120.418 1574.66 -111.413C1537.33 -95.8165 1506.38 -68.4928 1476.42 -42.0637C1465.32 -32.2621 1454.08 -22.3634 1442.44 -12.9314C1444.38 -13.6315 1446.33 -14.3317 1448.29 -15.0318C1507.04 -36.0545 1567.81 -57.7966 1641.14 -72.9073C1688.01 -82.5727 1726.35 -83.5645 1757.16 -84.3813C1795.52 -85.3926 1825.83 -86.19 1852.21 -102.759C1865.87 -111.355 1878.28 -124.035 1890.08 -141.518C1902.56 -159.974 1914.82 -184.38 1927.56 -216.099C1935.61 -236.169 1942.47 -255.305 1949.08 -273.819C1965.8 -320.551 1980.22 -360.924 2006.43 -394.607C2035.1 -431.441 2075.52 -456.353 2133.65 -472.98C2134.25 -473.155 2134.83 -473.311 2135.44 -473.486C2042.96 -469.752 1953.98 -444.704 1909.46 -348.4C1891.54 -309.641 1889.38 -269.288 1887.45 -233.699C1885.66 -200.522 1883.99 -169.172 1869.78 -145.271C1854.07 -118.842 1824.52 -103.771 1776.78 -97.8001C1744.88 -93.8134 1720.81 -102.487 1697.52 -110.869C1681.11 -116.781 1664.12 -122.887 1644.6 -124.463C1641.43 -124.696 1638.23 -124.832 1635 -124.832ZM500.704 -216.838C487.309 -213.143 473.915 -207.873 460.307 -200.988C445.648 -193.579 431.612 -184.73 417.868 -174.851C428.152 -181.541 437.736 -187.356 446.892 -192.509C466.022 -203.264 483.752 -211.315 500.704 -216.838ZM2413.05 -475.82C2456.71 -468.138 2498.64 -457.209 2535.15 -443.945C2579.61 -427.804 2615.75 -408.59 2642.58 -386.848C2656.93 -407.637 2660.31 -425.062 2652.61 -438.656C2645.83 -450.635 2630.29 -459.97 2606.4 -466.388C2585.89 -471.911 2558.62 -475.45 2525.31 -476.928C2489.1 -478.542 2449.73 -477.57 2413.05 -475.82ZM2163 -474.419C2195.14 -474.419 2227.18 -472.455 2257.46 -470.608C2265.14 -470.141 2272.39 -469.694 2279.68 -469.285C2290.59 -468.663 2313.94 -470.199 2343.49 -472.125C2363.22 -473.408 2385.77 -474.886 2409.53 -476.053C2405.43 -476.753 2401.3 -477.434 2397.18 -478.076C2300.8 -493.167 2204.8 -491.611 2138.84 -474.011C2146.87 -474.283 2154.93 -474.419 2163 -474.419Z" fill="url(#paint2_linear_93_394)"/>
<path d="M1222.08 61.4745C1212.85 61.4745 1203.63 61.1633 1194.42 60.5605C1113.39 55.2318 1024.2 41.9688 943.267 23.2214C897.309 12.5837 854.229 0.234436 815.057 -13.4566C795.461 -19.7186 776.214 -26.9142 757.552 -35.4322C755.394 -36.424 753.255 -37.4546 751.117 -38.5242C735.137 -45.5837 720.129 -52.8764 706.209 -60.3831C685.641 -71.4682 665.54 -87.2985 646.099 -102.623C610.212 -130.88 573.12 -160.11 528.64 -164.563C497.38 -167.694 466.119 -160.927 433.304 -143.891C410.578 -131.347 388.396 -115.42 366.545 -98.2474C356.086 -89.7683 345.782 -81.0364 335.615 -72.4211C316.369 -56.0853 297.901 -40.4106 279.277 -27.2058C252.954 -6.78598 227.118 10.6195 200.97 21.1405C145.001 43.6607 49.7621 58.9464 -47.5764 61.0078C-152.419 63.2443 -240.737 50.2145 -289.98 25.2634C-307.632 16.3176 -320.56 4.72681 -331.194 -7.99182C-363.737 -32.5734 -385.802 -60.1693 -407.342 -87.0457C-417.393 -99.6087 -427.152 -111.802 -437.728 -123.49C-449.917 -130.219 -462.748 -136.598 -475.384 -142.879C-511.154 -160.654 -548.13 -179.032 -569.904 -204.878L-570.312 -205.364L-569.709 -205.189C-529.37 -193.657 -497.468 -177.515 -469.299 -154.412C-457.46 -144.688 -447.137 -134.459 -437.494 -123.801C-423.186 -115.906 -409.772 -107.504 -398.555 -98.189C-379.601 -82.4366 -367.392 -62.892 -355.611 -43.9696C-348.088 -31.8928 -340.428 -19.6408 -330.941 -8.26401C-320.365 -0.271088 -308.701 7.39111 -295.579 14.6256C-262.919 32.6145 -220.519 45.3138 -169.546 52.3926C-123.103 58.8492 -69.9135 60.3076 -15.7329 56.671C36.4843 53.151 89.0708 44.9442 136.331 32.9452C184.504 20.7127 226.262 4.72687 257.114 -13.2815C264.482 -17.5794 271.773 -22.3635 279.024 -27.517C293.896 -39.0494 308.943 -51.554 324.281 -64.2921C338.162 -75.8245 352.159 -87.454 366.273 -98.5585C385.188 -113.883 404.707 -128.372 425.1 -139.923C427.763 -141.44 430.426 -142.879 433.07 -144.26C469.929 -164.583 508.188 -175.959 548.644 -169.056C596.584 -160.888 635.174 -128.022 672.48 -96.2249C697.364 -75.0272 723.025 -53.1682 751.234 -38.9132C771.082 -30.1619 792.447 -21.78 815.115 -13.8649C862.141 1.14856 911.17 10.7167 959.072 20.071C977.851 23.7271 997.272 27.5193 1016.21 31.5838C1062.36 41.4631 1103.69 48.1141 1142.55 51.9647C1182.93 55.9514 1220.92 56.9239 1258.69 54.9402C1281.69 53.7345 1304.88 51.3813 1328.6 47.8224C1335.13 46.2277 1341.7 44.4969 1348.31 42.6105C1395.8 29.114 1441.35 9.47202 1485.42 -9.52814C1552.96 -38.6604 1622.79 -68.7651 1703.12 -78.8C1716.22 -80.4336 1728.49 -81.9116 1739.3 -83.2146C1865.33 -98.403 1865.33 -98.403 1910.47 -186.908C1918.91 -203.439 1929.39 -224.014 1942.53 -248.129C1962.3 -284.457 1981.29 -312.15 2000.6 -332.784C2019.59 -353.106 2040.14 -367.906 2063.41 -378.019C2107.97 -397.388 2161.7 -400.111 2244.94 -402.328C2255.42 -402.6 2275.89 -405.05 2301.81 -408.143C2352.16 -414.152 2421.13 -422.378 2482 -422.942C2515.34 -423.253 2542.56 -421.153 2562.93 -416.68C2586.8 -411.449 2602.12 -402.833 2608.48 -391.029C2617.09 -375.043 2609.51 -352.815 2585.99 -324.927L2585.83 -324.752L2585.68 -324.927C2544.87 -374.946 2477.98 -395.074 2386.86 -384.728C2326.54 -377.882 2255.36 -357.54 2175.31 -324.227C2098.85 -292.411 2052.79 -240.408 2008.26 -190.117C1972.12 -149.316 1934.77 -107.115 1881.6 -76.7385C1820.93 -42.0637 1740.85 -32.9234 1663.42 -24.0748C1606.77 -17.6182 1548.18 -10.9284 1498.27 5.77701C1436.69 26.4108 1381.36 40.2963 1328.64 48.2114C1292.32 57.0988 1257.08 61.4745 1222.08 61.4745ZM827.149 -9.72256C863.055 2.33487 902.033 13.2838 943.364 22.8519C1024.26 41.5798 1113.43 54.843 1194.44 60.1716C1237.19 62.9915 1279.92 59.277 1324.38 48.8726C1302.16 52.0815 1280.38 54.2206 1258.77 55.3485C1220.97 57.3322 1182.97 56.3599 1142.57 52.3731C1103.67 48.542 1062.34 41.8716 1016.17 31.9922C997.253 27.9472 977.812 24.1548 959.033 20.4793C915.253 11.9418 870.481 3.19055 827.149 -9.72256ZM-329.755 -6.8833C-319.355 5.2908 -306.757 16.3759 -289.766 24.9716C-240.582 49.8838 -152.302 62.8943 -47.5569 60.6772C49.7427 58.6158 144.923 43.3495 200.854 20.8293C224.863 11.1639 248.599 -4.31625 272.706 -22.5774C267.612 -19.1352 262.499 -15.9069 257.367 -12.8925C226.476 5.13528 184.679 21.1211 136.486 33.373C89.2068 45.3915 36.6009 53.5984 -15.6357 57.1183C-69.8358 60.7744 -123.044 59.2964 -169.527 52.8399C-220.539 45.761 -262.997 33.0423 -295.676 15.0146C-308.293 8.07181 -319.53 0.740082 -329.755 -6.8833ZM2488.4 -422.553C2486.32 -422.553 2484.2 -422.534 2482.08 -422.514C2421.23 -421.95 2352.27 -413.724 2301.92 -407.715C2276.01 -404.623 2255.52 -402.172 2245.04 -401.9C2161.86 -399.702 2108.14 -396.96 2063.66 -377.63C2040.12 -367.4 2020.19 -353.048 2000.97 -332.492C1981.7 -311.878 1962.73 -284.223 1942.96 -247.915C1929.83 -223.8 1919.34 -203.225 1910.9 -186.694C1865.66 -98.014 1865.66 -98.014 1739.41 -82.7867C1728.6 -81.4837 1716.34 -80.0056 1703.23 -78.3721C1622.96 -68.3566 1553.15 -38.252 1485.64 -9.13916C1441.57 9.86099 1396 29.5224 1348.48 43.0189C1343.25 44.4969 1338.06 45.8971 1332.87 47.2001C1384.31 39.1877 1438.32 25.4967 1498.25 5.42697C1548.2 -11.2979 1606.79 -17.9877 1663.48 -24.4443C1740.87 -33.2734 1820.89 -42.4137 1881.5 -77.0497C1934.62 -107.407 1971.94 -149.569 2008.06 -190.351C2052.62 -240.681 2098.69 -292.722 2175.25 -324.557C2255.34 -357.871 2326.56 -378.232 2386.92 -385.078C2478.09 -395.405 2545.05 -375.296 2585.95 -325.316C2609.26 -352.99 2616.74 -375.024 2608.25 -390.815C2601.95 -402.503 2586.71 -411.079 2562.97 -416.272C2543.88 -420.433 2518.82 -422.553 2488.4 -422.553ZM-436.639 -122.849C-426.336 -111.413 -416.81 -99.4921 -406.992 -87.2207C-385.783 -60.7139 -364.029 -33.5457 -332.244 -9.23639C-341.264 -20.2436 -348.632 -32.0677 -355.883 -43.6973C-367.664 -62.5808 -379.853 -82.106 -398.75 -97.8195C-409.675 -106.921 -422.739 -115.128 -436.639 -122.849ZM763.325 -33.2735C774.659 -28.2755 786.207 -23.7637 797.91 -19.6214C785.974 -24.0554 774.426 -28.6061 763.325 -33.2735ZM346.424 -82.0282C339.114 -76.0384 331.824 -69.9903 324.573 -63.9615C312.228 -53.6933 300.078 -43.6195 288.064 -34.0514C303.655 -45.7587 319.266 -59.0024 335.401 -72.6935C339.056 -75.805 342.73 -78.9166 346.424 -82.0282ZM513.846 -165.691C518.803 -165.691 523.741 -165.438 528.698 -164.952C573.275 -160.479 610.426 -131.23 646.352 -102.934C666.687 -86.929 685.875 -71.8184 706.404 -60.7333C718.69 -54.1017 731.832 -47.6451 745.732 -41.3636C719.584 -55.5992 695.595 -76.0579 672.286 -95.9137C635.018 -127.671 596.487 -160.499 548.644 -168.647C512.388 -174.832 477.881 -166.294 444.579 -149.803C468.199 -160.44 491.081 -165.691 513.846 -165.691ZM408.031 -128.955C404.629 -126.718 401.246 -124.424 397.902 -122.071C401.246 -124.404 404.629 -126.718 408.031 -128.955ZM-569.145 -204.586C-547.392 -179.052 -510.668 -160.81 -475.17 -143.171C-462.884 -137.064 -450.403 -130.861 -438.486 -124.326C-447.895 -134.653 -457.965 -144.591 -469.493 -154.042C-497.488 -177.01 -529.156 -193.093 -569.145 -204.586Z" fill="url(#paint3_linear_93_394)"/>
<path d="M1229.39 77.5769C1197.76 77.5769 1167.1 75.0683 1136.29 71.2372C1078.77 66.1225 1021.46 56.5931 962.707 46.8305C957.361 45.9359 951.995 45.0414 946.61 44.1662C939.631 43.0188 932.71 41.6381 925.848 40.0823C828.121 28.2582 770.674 -1.22412 709.903 -32.3984C669.214 -53.2655 627.145 -74.8521 569.679 -93.58C469.755 -126.154 399.399 -80.9003 324.923 -32.9818C283.69 -6.45547 241.115 20.9266 191.503 36.4456C185.262 38.5849 178.944 40.4712 172.548 42.0853C116.501 56.1264 37.3007 65.6363 -39.3143 67.4838C-65.0535 68.1061 -89.8401 67.8922 -113.246 66.8615C-189.803 64.1194 -254.754 53.8122 -299.642 37.0485C-322.018 28.6861 -390.099 -14.3317 -451.394 -58.8664C-486.796 -84.5759 -568.815 -146.477 -566.016 -166.08L-565.977 -166.333L-565.743 -166.216C-515.84 -142.452 -469.61 -103.77 -424.916 -66.3536C-397.194 -43.1528 -368.539 -19.1741 -339.378 0.89563C-306.718 23.3963 -276.838 38.5071 -248.027 47.1418C-213.287 57.5461 -166.824 64.1388 -113.227 66.492C-95.7305 67.1143 -77.6315 67.3476 -59.0463 67.1726C31.663 66.3169 122.12 55.6403 182.91 38.6043C185.768 37.8069 188.587 36.9707 191.386 36.0956C238.238 20.032 281.143 -10.2282 322.823 -39.6328C356.397 -63.3198 391.137 -87.8041 427.122 -104.14C446.484 -112.93 464.719 -118.726 482.838 -121.895C503.173 -125.454 522.866 -125.61 543.065 -122.401C609.24 -111.88 670.789 -78.2166 735.953 -42.5888C796.219 -9.64487 858.351 24.3298 925.926 39.6933C927.151 39.8489 928.395 39.985 929.639 40.1406C971.805 45.0024 1010.28 51.3229 1047.47 57.4294C1078.28 62.4857 1107.95 67.3671 1137.48 71.0038C1145.56 71.7234 1153.67 72.3456 1161.8 72.8707C1235.87 77.6742 1299.94 73.4736 1363.45 59.6659C1390.11 53.8706 1416.43 45.2164 1442.32 35.4149C1458.03 28.9194 1473.6 21.8989 1488.9 14.995C1526.17 -1.827 1564.7 -19.2325 1603.68 -28.1589C1604.59 -28.3728 1605.51 -28.5673 1606.44 -28.7617C1624.83 -34.4015 1643.38 -39.0105 1662.04 -41.986C1691.84 -46.7312 1719.27 -47.2173 1745.79 -47.6841C1771.86 -48.1508 1797.13 -48.5981 1823.24 -52.9932C1880.07 -77.497 1924.74 -120.729 1968.11 -162.716C1989.81 -183.719 2012.24 -205.442 2035.55 -224.034C2061.64 -244.842 2086.35 -259.642 2111.06 -269.288C2167.77 -291.4 2265.01 -291.341 2318.74 -289.26C2344.46 -299.976 2365.38 -307.988 2381.2 -313.725C2422.09 -328.564 2456.24 -338.307 2482.74 -342.682C2515.26 -348.05 2536.53 -345.366 2546 -334.709C2557.49 -321.777 2551.7 -296.884 2528.79 -260.731L2528.72 -260.614L2528.58 -260.653C2480.83 -274.636 2398.91 -285.682 2319.87 -288.813C2319.52 -288.832 2319.15 -288.833 2318.8 -288.852C2291.37 -277.417 2258.47 -262.909 2220.49 -244.745L2218.14 -243.617C2190.39 -230.412 2159.83 -222.867 2130.28 -215.554C2100.29 -208.145 2069.26 -200.483 2041.17 -186.889C2012.36 -172.965 1987.45 -150.483 1963.35 -128.741C1938.52 -106.338 1915.08 -85.1787 1887.65 -72.4601C1865.15 -62.0363 1843.98 -56.0659 1823.34 -52.5654C1815.21 -49.0648 1806.83 -45.9532 1798.18 -43.2695C1766.59 -33.5068 1730.37 -33.7208 1695.36 -33.9347C1665.48 -34.1097 1634.61 -34.3042 1606.54 -28.3338C1571.86 -17.6766 1537.7 -3.32437 1504.28 10.7167C1483.97 19.2541 1463.36 27.9276 1442.46 35.8233C1425.51 42.8244 1408.38 49.2226 1391.2 54.1817C1331.82 71.3149 1279.37 77.5769 1229.39 77.5769ZM1147.43 72.1706C1223.13 80.7664 1298.68 80.494 1391.1 53.7538C1403.97 50.0393 1416.82 45.5081 1429.57 40.5296C1407.84 48.3669 1385.81 55.193 1363.53 60.0354C1289.02 76.2351 1217.98 77.7326 1147.43 72.1706ZM929.697 40.549C935.316 41.7742 940.992 42.8438 946.688 43.7967C952.073 44.6913 957.439 45.5859 962.785 46.461C1018.97 55.7958 1072.58 64.7028 1126.36 69.973C1100.46 66.5308 1074.37 62.2524 1047.41 57.8184C1010.24 51.7119 971.825 45.3914 929.697 40.549ZM-565.666 -165.769C-566.404 -158.379 -555.207 -144.163 -532.345 -123.49C-512.593 -105.657 -484.521 -83.409 -451.161 -59.1775C-389.885 -14.6817 -321.843 28.336 -299.486 36.679C-261.655 50.8173 -209.555 60.3466 -148.259 64.6444C-187.179 61.3578 -221.18 55.5819 -248.125 47.5113C-276.974 38.8766 -306.893 23.727 -339.592 1.20685C-368.753 -18.8824 -397.428 -42.8611 -425.15 -66.0619C-469.766 -103.401 -515.898 -142.004 -565.666 -165.769ZM503.387 -105.015C524.168 -105.015 546.175 -101.651 569.834 -93.9495C627.32 -75.2022 669.408 -53.6155 710.097 -32.7484C770.071 -1.98257 826.799 27.1303 922.251 39.2266C855.998 23.4742 794.994 -9.87827 735.778 -42.2583C670.653 -77.8665 609.123 -111.511 543.026 -122.032C522.885 -125.24 503.231 -125.065 482.935 -121.526C464.836 -118.375 446.64 -112.561 427.297 -103.809C391.332 -87.5124 356.63 -63.0281 323.057 -39.3412C284.875 -12.4064 245.645 15.2479 203.284 32.07C247.841 16.1425 286.858 -8.96417 324.748 -33.3318C381.67 -69.9319 436.2 -105.015 503.387 -105.015ZM1601.81 -27.3225C1563.54 -18.2794 1525.7 -1.18524 1489.08 15.3451C1477.55 20.557 1465.87 25.8274 1454.1 30.8837C1470.98 24.2521 1487.66 17.2315 1504.16 10.3083C1536.08 -3.12994 1568.71 -16.8403 1601.81 -27.3225ZM1821.72 -52.3708C1796.16 -48.1896 1771.37 -47.7618 1745.79 -47.3145C1719.27 -46.8478 1691.86 -46.3617 1662.08 -41.6165C1644.76 -38.8549 1627.53 -34.6932 1610.45 -29.5785C1637.49 -34.7321 1666.88 -34.557 1695.36 -34.382C1730.35 -34.168 1766.53 -33.9542 1798.07 -43.6974C1806.21 -46.2255 1814.08 -49.1231 1821.72 -52.3708ZM2273.85 -289.785C2202.99 -289.785 2146.19 -282.59 2111.19 -268.938C2086.52 -259.311 2061.85 -244.531 2035.78 -223.742C2012.47 -205.15 1990.06 -183.447 1968.36 -162.443C1925.34 -120.787 1881.04 -77.9054 1824.83 -53.2849C1844.96 -56.8049 1865.58 -62.7364 1887.45 -72.8685C1914.82 -85.5483 1938.25 -106.688 1963.06 -129.072C1987.16 -150.833 2012.1 -173.334 2040.95 -187.278C2069.08 -200.872 2100.13 -208.553 2130.15 -215.963C2159.68 -223.256 2190.22 -230.801 2217.94 -243.987L2220.29 -245.115C2257.93 -263.084 2290.57 -277.514 2317.85 -288.891C2302.7 -289.494 2288 -289.785 2273.85 -289.785ZM2319.67 -289.241C2319.75 -289.241 2319.83 -289.241 2319.91 -289.241C2398.89 -286.11 2480.78 -275.064 2528.56 -261.1C2551.29 -297.02 2557.06 -321.699 2545.71 -334.476C2536.34 -345.036 2515.19 -347.661 2482.8 -342.313C2456.32 -337.937 2422.18 -328.194 2381.32 -313.375C2365.67 -307.697 2345.02 -299.801 2319.67 -289.241Z" fill="url(#paint4_linear_93_394)"/>
<path d="M1184.15 88.6621C1149.63 88.6621 1116.48 86.7173 1083.84 82.8279C1012.9 74.3682 949.798 64.7612 889.786 53.2094C889.65 53.2094 889.513 53.1899 889.358 53.1899C838.365 49.9033 790.211 46.8112 741.766 37.4764C687.274 26.9942 640.695 10.1916 595.223 -15.4013C580.837 -23.4914 567.909 -30.5897 556.128 -36.735C465.905 -63.2614 431.729 -47.8201 368.022 -19.0573C342.322 -7.44714 310.342 7.0022 267.904 21.4322C243.37 29.7752 216.367 37.3014 187.789 43.8357C180.558 45.8972 173.248 47.8419 165.899 49.67C128.107 59.0631 87.4765 65.6169 45.1157 69.1758C2.96869 72.7152 -41.8805 73.4348 -90.3068 71.2955C-106.034 70.7899 -121.392 69.8953 -136.322 68.6118C-140.055 68.3006 -143.749 67.9506 -147.404 67.5811C-164.764 66.1226 -182.571 64.3139 -200.884 62.1941C-260.12 55.3292 -309.44 40.7825 -356.097 16.4149C-398.691 -5.81357 -435.162 -33.8569 -477.386 -66.3342C-503.437 -86.365 -530.381 -107.076 -562.011 -128.974L-562.594 -129.383L-561.894 -129.344C-527.971 -127.03 -497.818 -117.345 -467.044 -98.8892C-439.886 -82.5922 -416.557 -62.114 -391.848 -40.4301C-354.037 -7.23331 -314.922 27.0914 -261.403 44.5358C-228.548 55.2513 -190.231 62.8553 -147.365 67.1727C-127.769 68.8257 -108.756 70.0704 -90.2679 70.8872C-59.7852 71.8596 -27.9222 71.3344 4.91278 69.3508C67.2584 65.578 130.615 56.4766 187.712 43.4467C220.624 34.0536 252.196 22.2491 281.843 8.22745C315.611 -7.73892 342.341 -22.0717 363.804 -33.5846C407.37 -56.941 433.692 -71.0404 464.369 -69.7375C479.514 -69.0957 496.31 -64.7005 517.209 -55.8908C528.367 -51.1845 540.868 -45.2142 556.284 -37.1435C562.991 -35.1793 570.009 -32.9622 577.377 -30.5118C667.95 -0.407196 746.762 21.8213 825.418 39.4018C846.647 44.1469 868.032 48.6003 889.844 52.7815C926.781 55.1541 964.962 57.624 1004.78 62.6609C1054.72 68.9618 1104.58 72.2095 1157.25 72.5985C1204.31 72.9485 1252.64 70.9649 1305.02 66.5698C1384.22 59.9188 1461.26 48.6976 1540.89 36.154C1594.41 22.9102 1647.71 8.32468 1700.1 -6.00812C1800.94 -33.604 1905.2 -62.1334 2006.7 -79.8695C2031.47 -84.2063 2054.5 -87.3374 2076.76 -90.3906C2123.73 -96.8083 2164.28 -102.331 2203.34 -116.489C2246.17 -132.008 2282.42 -156.57 2317.5 -193.793C2333.26 -210.518 2340.9 -229.537 2347.67 -246.301C2359.49 -275.608 2369.67 -300.929 2417.11 -303.885C2442.85 -305.499 2462 -298.867 2473.95 -284.204C2489.37 -265.32 2492.15 -233.718 2481.75 -195.232L2481.69 -194.998L2481.48 -195.096C2443.78 -213.415 2413.3 -217.674 2385.52 -208.514C2360.36 -200.21 2339.29 -181.424 2316.97 -161.51C2289.13 -136.675 2257.58 -108.554 2210.36 -92.7242C2093.62 -53.6154 1907.81 -16.7819 1784.59 -0.582184C1720.63 7.81912 1657.63 17.9123 1596.7 27.6749C1577.94 30.6892 1559.37 33.6453 1540.96 36.5624C1491.16 48.8921 1441.18 60.0744 1391.58 68.8063C1336.18 78.5689 1285.75 84.5782 1237.42 87.1647C1219.22 88.176 1201.51 88.6621 1184.15 88.6621ZM892.896 53.4038C951.995 64.6834 1014.15 74.1154 1083.88 82.4389C1132.91 88.2926 1183.12 89.7123 1237.36 86.7952C1285.67 84.1892 1336.08 78.1994 1391.49 68.4368C1439.62 59.9577 1488.13 49.1838 1536.47 37.282C1458.42 49.5338 1382.76 60.4634 1305.03 66.9977C1256.55 71.0622 1211.51 73.0653 1167.75 73.0653C1164.23 73.0653 1160.73 73.0458 1157.23 73.0264C1104.56 72.6374 1054.68 69.3897 1004.72 63.0887C966.012 58.2075 928.861 55.7375 892.896 53.4038ZM-65.9673 71.7817C-26.7364 72.7541 10.0839 71.7622 45.0768 68.8257C87.4182 65.2668 128.029 58.6936 165.802 49.3199C170.682 48.1142 175.542 46.8501 180.363 45.5276C125.211 57.6823 64.6145 66.1615 4.91278 69.7787C-19.3101 71.2567 -42.9886 71.9178 -65.9673 71.7817ZM-561.233 -128.858C-529.837 -107.096 -503.067 -86.5205 -477.173 -66.6063C-434.948 -34.1485 -398.477 -6.10535 -355.922 16.1036C-309.323 40.4324 -260.042 54.9597 -200.845 61.8441C-188.54 63.2638 -176.448 64.5472 -164.55 65.6752C-200.573 61.1828 -233.097 54.2401 -261.519 44.9637C-315.117 27.4804 -354.25 -6.86383 -392.082 -40.0801C-416.771 -61.764 -440.1 -82.2227 -467.219 -98.5002C-497.78 -116.8 -527.66 -126.466 -561.233 -128.858ZM558.034 -36.1711C568.881 -30.473 581.168 -23.7442 595.398 -15.7318C640.85 9.82211 687.371 26.6053 741.824 37.0875C789.414 46.2473 836.732 49.3977 886.733 52.626C865.952 48.6004 845.539 44.3413 825.302 39.8101C746.626 22.2296 667.795 0.00112915 577.221 -30.1035C570.553 -32.3205 564.157 -34.3431 558.034 -36.1711ZM460.384 -69.4068C431.515 -69.4068 406.301 -55.8908 363.959 -33.1956C342.477 -21.6827 315.747 -7.34995 281.979 8.61642C254.373 21.6656 225.096 32.809 194.594 41.8715C220.625 35.7261 245.236 28.7445 267.787 21.0822C310.206 6.63272 342.166 -7.7973 367.867 -19.4074C431.223 -48.0146 465.4 -63.4559 554.379 -37.6491C511.96 -59.7026 484.859 -69.4068 460.384 -69.4068ZM2424.42 -303.69C2422.05 -303.69 2419.6 -303.613 2417.09 -303.457C2395.47 -302.115 2380.29 -296.164 2369.3 -284.749C2359.41 -274.461 2353.87 -260.692 2348 -246.106C2341.23 -229.304 2333.55 -210.265 2317.75 -193.481C2282.64 -156.201 2246.32 -131.6 2203.44 -116.081C2164.34 -101.923 2123.77 -96.3804 2076.78 -89.9627C2054.52 -86.9289 2031.51 -83.7785 2006.74 -79.4612C1905.26 -61.7251 1801 -33.1956 1700.18 -5.61914C1649.21 8.32468 1597.36 22.5213 1545.3 35.4734C1562.27 32.7896 1579.36 30.0475 1596.62 27.2859C1657.55 17.5233 1720.56 7.43015 1784.52 -0.971161C1907.71 -17.1515 2093.5 -54.0044 2210.2 -93.0938C2257.37 -108.885 2288.88 -137.006 2316.7 -161.802C2339.06 -181.735 2360.15 -200.56 2385.38 -208.884C2413.2 -218.063 2443.72 -213.824 2481.42 -195.543C2491.7 -233.796 2488.94 -265.184 2473.62 -283.932C2462.89 -297.039 2446.37 -303.69 2424.42 -303.69Z" fill="url(#paint5_linear_93_394)"/>
<path d="M876.994 111.591C790.153 111.591 704.965 106.087 614.683 77.752L605.702 74.9321C547.011 56.4959 504.611 43.155 460.637 36.854C414.699 30.2614 369.636 31.7976 309.993 42.0075C226.476 56.3014 127.427 71.9761 26.1224 79.7357C-81.3446 87.9619 -174.912 86.0366 -259.925 73.8235C-367.003 58.4406 -416.79 19.5652 -485.707 -34.2265C-507.286 -51.068 -531.742 -70.1654 -560.106 -90.0212L-560.572 -90.3518L-560.008 -90.3908C-483.452 -94.4164 -446.573 -59.2165 -407.537 -21.9551C-382.109 2.31528 -355.806 27.4219 -316.905 43.7967C-246.764 73.3179 -143.107 79.5411 -68.2417 79.5411C-68.0085 79.5411 -67.7751 79.5411 -67.5418 79.5411C19.0461 79.5022 113.605 71.1788 185.418 57.2739C231.57 48.3475 271.675 35.3954 310.44 22.8907C394.481 -4.23853 467.052 -27.6726 564.216 3.03491C657.355 32.4589 724.775 51.0117 789.706 65.0917C865.135 81.447 938.776 91.8708 1021.5 97.9384C1077.02 102.003 1132.48 102.586 1191.11 99.7276C1243.51 97.1605 1297.36 91.8903 1355.74 83.5667C1464.43 68.0866 1569.56 44.9247 1680.88 20.4209C1737.39 7.97456 1795.83 -4.89964 1854.7 -16.6459C1896.1 -24.9111 1954.41 -26.6225 2016.13 -28.4505C2104.21 -31.0565 2195.29 -33.7403 2243.72 -56.1049C2260.44 -63.8255 2282.33 -93.2106 2305.5 -124.288C2323.08 -147.858 2341.23 -172.245 2359.12 -190.117C2379.47 -210.479 2396.15 -218.861 2410.17 -215.749C2429.71 -211.412 2444.19 -185.1 2454.43 -135.353L2454.51 -134.984L2454.18 -135.12C2442.01 -140.196 2429.67 -142.024 2416.45 -140.682C2404.61 -139.476 2392.32 -135.762 2378.83 -129.305C2353.71 -117.267 2328.97 -97.9363 2302.78 -77.4581C2264.29 -47.3729 2224.49 -16.257 2182.29 -8.90585C2127.45 0.642838 2073.09 2.91818 2015.53 5.31023C1957.79 7.72171 1898.11 10.1916 1838.27 20.771C1674.4 49.7088 1549.54 68.7283 1433.38 82.4388C1288.55 99.5331 1155.21 108.362 1025.77 109.451C1003.18 109.646 980.806 110.074 959.15 110.502C931.486 111.046 904.152 111.591 876.994 111.591ZM404.92 32.4784C424.031 32.4784 442.285 33.8202 460.695 36.4651C504.689 42.7855 547.108 56.1069 605.818 74.5626L614.8 77.3825C733.231 114.566 842.973 112.407 959.15 110.113C980.806 109.685 1003.18 109.237 1025.77 109.062C1155.21 107.973 1288.51 99.1442 1433.34 82.0499C1549.5 68.3394 1674.37 49.3198 1838.21 20.382C1898.07 9.80258 1957.77 7.33273 2015.53 4.92125C2073.07 2.52922 2127.43 0.25386 2182.23 -9.29483C2224.34 -16.6265 2264.09 -47.7035 2302.55 -77.7693C2328.75 -98.2669 2353.52 -117.617 2378.68 -129.675C2392.19 -136.151 2404.53 -139.884 2416.41 -141.09C2429.57 -142.432 2441.88 -140.643 2453.99 -135.645C2448.72 -161.063 2442.19 -180.685 2434.55 -193.91C2427.51 -206.123 2419.29 -213.337 2410.09 -215.379C2408.22 -215.788 2406.3 -216.002 2404.38 -216.002C2374.34 -216.002 2338.06 -167.325 2305.83 -124.074C2282.62 -92.9383 2260.71 -63.5338 2243.89 -55.7548C2195.41 -33.3514 2104.27 -30.6675 2016.17 -28.0616C1954.46 -26.2335 1896.18 -24.5222 1854.79 -16.257C1795.93 -4.51079 1737.49 8.36354 1680.99 20.8099C1569.66 45.3332 1464.52 68.495 1355.81 83.9752C1297.43 92.2793 1243.56 97.569 1191.15 100.136C1132.52 102.995 1077.02 102.411 1021.5 98.3469C938.756 92.2793 865.096 81.8554 789.648 65.5001C724.717 51.4202 657.278 32.8672 564.119 3.44322C467.072 -27.2254 394.539 -3.81064 310.576 23.2991C271.792 35.8233 231.686 48.7753 185.496 57.7017C113.663 71.6066 19.0656 79.9301 -67.5418 79.969C-67.7751 79.969 -68.0085 79.969 -68.2612 79.969C-143.165 79.969 -246.88 73.7458 -317.08 44.1857C-356.039 27.7915 -382.361 2.64595 -407.828 -21.6439C-444.746 -56.9022 -479.739 -90.2934 -548.266 -90.2934C-551.902 -90.2934 -555.615 -90.1963 -559.445 -90.0018C-531.256 -70.2432 -506.955 -51.2624 -485.493 -34.5181C-416.615 19.2346 -366.867 58.0906 -259.886 73.4541C-174.912 85.6671 -81.364 87.5924 26.0641 79.3661C127.349 71.6066 226.379 55.9514 309.895 41.638C345.744 35.4732 376.285 32.4784 404.92 32.4784Z" fill="url(#paint6_linear_93_394)"/>
<path d="M1139.01 132.73C1124.88 132.73 1110.92 132.497 1097.12 132.011C1064.96 130.902 1032.23 130.299 1000.56 129.716C974.41 129.23 947.874 128.763 921.221 127.965C806.075 130.902 696.042 115.558 589.527 100.7C525.821 91.8126 459.957 82.6334 394.539 77.6549C321.287 72.0929 255.929 72.4819 194.73 78.8606C174.551 80.961 150.425 84.0725 122.528 87.6703C69.9802 94.438 4.60181 102.878 -63.7899 108.11C-143.962 114.255 -212.004 114.838 -271.784 109.899C-345.871 103.773 -406.934 88.7983 -453.3 65.3641C-479.525 52.1204 -501.648 35.8622 -519.086 17.0565C-537.749 -3.07158 -551.571 -26.7196 -560.164 -53.2265L-560.261 -53.4988L-559.97 -53.4793C-485.726 -46.5755 -421.612 -19.9519 -359.635 5.79651C-290.544 34.4815 -219.119 64.1583 -132.279 67.6394C34.7346 74.3488 173.151 66.9782 330.522 42.9995C375.371 36.1735 413.533 35.629 450.606 41.3271C484.957 46.5973 516.781 56.7877 553.64 68.6118C574.286 75.2239 597.673 82.7306 623.995 90.1012C679.284 105.62 740.444 115.986 810.955 121.801C847.444 124.815 884.42 126.468 921.221 127.557C924.565 127.479 927.909 127.363 931.252 127.246C1081.41 122.034 1206.41 114.488 1324.65 103.501C1419.69 94.6714 1511.3 83.4502 1602.03 69.5259C1621.88 65.2085 1641.61 60.8717 1661.2 56.5543C1730 41.4048 1801.14 25.7301 1872.04 12.6809C1919 4.0462 1961.46 2.35426 2004.37 2.21812C2024.94 0.545639 2045.74 -0.446106 2066.89 -0.621132C2067.96 -0.621132 2069.05 -0.640594 2070.13 -0.640594C2088.04 -0.640594 2106.06 0.467857 2123.6 1.61526C2141.93 0.895699 2160.77 -0.387794 2180.25 -2.6048C2195.6 -4.33563 2240.39 -21.6244 2287.83 -39.9245C2358.73 -67.287 2432.06 -95.5637 2441.43 -86.8512C2442.46 -85.8983 2442.69 -84.5174 2442.17 -82.7672L2442.13 -82.6117L2441.97 -82.631C2410.62 -85.4509 2368.78 -61.5695 2328.29 -38.4659C2300.52 -22.6357 2274.32 -7.66117 2253.38 -2.50759C2211.53 7.81901 2169.18 5.01863 2128.24 2.29599C2126.71 2.19875 2125.15 2.082 2123.62 1.98476C2095.33 3.11272 2068.23 2.89878 2041.65 2.70431C2029.12 2.60707 2016.73 2.52939 2004.41 2.56828C1934.87 8.20805 1867.9 21.4128 1797.91 35.2205C1771.24 40.4713 1743.65 45.9166 1715.87 50.9146C1677.98 57.7407 1640.13 64.0417 1602.1 69.8759C1529.38 85.6867 1455.29 100.972 1381.77 112.33C1293.6 126.021 1213.74 132.73 1139.01 132.73ZM928.045 127.771C952.404 128.452 976.646 128.88 1000.58 129.327C1032.23 129.91 1064.96 130.494 1097.14 131.622C1183.84 134.636 1276.9 128.218 1381.71 112.019C1453.15 100.972 1525.16 86.2118 1595.9 70.8872C1507.2 84.3837 1417.6 95.2743 1324.71 103.909C1206.47 114.897 1081.47 122.442 931.291 127.654C930.203 127.713 929.114 127.732 928.045 127.771ZM296.792 73.3764C327.917 73.3764 360.382 74.6794 394.559 77.2659C459.995 82.2445 525.86 91.4236 589.586 100.311C693.806 114.838 801.39 129.852 913.834 127.732C879.463 126.643 844.975 125.009 810.916 122.209C740.385 116.394 679.206 106.029 623.879 90.5096C597.556 83.1196 574.15 75.6324 553.504 69.0202C516.664 57.2156 484.86 47.0251 450.528 41.7548C413.494 36.0762 375.371 36.6012 330.561 43.4273C173.17 67.406 34.7346 74.7767 -132.318 68.0673C-219.217 64.5668 -290.68 34.8899 -359.81 6.18548C-421.689 -19.5046 -485.687 -46.0893 -559.736 -53.032C-551.163 -26.7002 -537.399 -3.2077 -518.834 16.8232C-501.434 35.59 -479.33 51.8092 -453.164 65.0335C-406.856 88.4288 -345.833 103.403 -271.784 109.529C-212.024 114.469 -144.001 113.885 -63.8482 107.74C4.52405 102.489 69.9218 94.0685 122.45 87.3008C150.367 83.703 174.473 80.5914 194.671 78.4911C227.351 75.0684 261.197 73.3764 296.792 73.3764ZM1999.45 2.64603C1958.24 2.89885 1917.25 4.78524 1872.11 13.0893C1801.21 26.1191 1730.08 41.7937 1661.3 56.9628C1643.75 60.8328 1626.08 64.7223 1608.33 68.5923C1644.23 63.0303 1680 57.0406 1715.79 50.5841C1743.57 45.5861 1771.14 40.1408 1797.81 34.8899C1866.17 21.4129 1931.66 8.49971 1999.45 2.64603ZM2127.21 1.88755C2127.56 1.907 2127.91 1.92652 2128.26 1.96542C2169.18 4.68806 2211.49 7.48845 2253.28 -2.8187C2274.16 -7.97227 2300.35 -22.908 2328.07 -38.7382C2368.55 -61.8418 2410.4 -85.7038 2441.84 -82.9617C2442.28 -84.5175 2442.05 -85.6844 2441.18 -86.5012C2431.98 -95.058 2355.48 -65.5367 2287.99 -39.4966C2240.53 -21.1965 2195.72 -3.90783 2180.3 -2.15755C2162.07 -0.11557 2144.42 1.14854 2127.21 1.88755ZM2010.41 2.23759C2020.78 2.23759 2031.16 2.31541 2041.65 2.3932C2067.04 2.58768 2092.92 2.76273 2119.84 1.8098C2102.43 0.681847 2084.58 -0.329475 2066.91 -0.193344C2047.49 -0.0377655 2028.38 0.817924 2009.48 2.23759C2009.79 2.23759 2010.1 2.23759 2010.41 2.23759Z" fill="url(#paint7_linear_93_394)"/>
<path d="M750.086 170.341C700.844 170.341 650.998 167.658 598.567 162.271C510.249 153.189 424.75 137.495 334.215 120.867C294.693 113.613 253.81 106.106 211.39 98.9109C210.652 98.7747 209.893 98.658 209.135 98.5414C207.522 98.5025 205.908 98.4636 204.295 98.4247C151.105 97.18 96.4193 97.1605 43.5411 97.1605C29.8745 97.1605 16.1495 97.1606 2.36615 97.1217C-16.9382 98.6192 -36.5537 100.292 -56.383 102.003C-151.583 110.19 -250.03 118.65 -338.445 106.787C-386.191 100.369 -426.686 88.7204 -462.242 71.1788C-481.566 61.6301 -499.549 50.1755 -515.742 37.1263C-532.753 23.3964 -548.344 7.43007 -562.089 -10.3255L-562.341 -10.6562L-561.933 -10.6367C-505.186 -8.86697 -453.397 14.2561 -398.555 38.721C-345.91 62.2135 -291.477 86.5034 -231.775 90.5679C-154.791 95.7993 -75.4541 96.6161 2.34674 96.7522C77.1537 90.9763 147.509 88.0786 209.174 98.1718C316.622 100.914 421.348 111.143 522.672 121.062C597.44 128.374 674.774 135.939 752.108 140.353C838.774 145.293 916.497 145.682 989.749 141.52C1102.5 135.122 1230.31 127.868 1354.18 116.141C1488.05 103.481 1603.19 87.1646 1716.57 64.8001C1791.12 50.0978 1864.63 42.1438 1936.5 35.9789C1974.92 31.1754 2013.66 28.0638 2053.38 26.6052C2090.12 23.6103 2127.48 20.2848 2164.91 16.0258C2180.21 14.2756 2210.4 3.05429 2245.37 -9.93661C2311.9 -34.6543 2394.71 -65.4201 2424.65 -49.5899C2430.23 -46.6339 2433.81 -42.1026 2435.31 -36.1128L2435.36 -35.8405L2435.09 -35.86C2383.03 -40.3523 2325.33 -23.7831 2264.23 -6.24154C2209.35 9.51089 2152.6 25.8079 2099.12 26.0801C2083.7 26.1579 2068.48 26.469 2053.4 27.033C2037.73 28.3166 2022.18 29.5223 2006.78 30.7281C1983.55 32.5367 1960.14 34.3842 1936.54 36.4067C1920.07 38.4681 1903.67 40.8407 1887.26 43.5439C1821.96 54.2789 1755.94 69.9536 1679.54 92.921C1601.31 116.433 1516.24 132.069 1419.48 140.742C1333.03 148.482 1244.81 150.116 1159.48 151.711C1068.68 153.403 974.799 155.133 880.571 164.118C836.616 168.241 793.575 170.341 750.086 170.341ZM211.935 98.5997C254.179 105.756 294.907 113.244 334.293 120.478C424.808 137.106 510.327 152.8 598.606 161.882C697.305 172.033 786.887 172.597 880.513 163.671C974.76 154.686 1068.66 152.955 1159.46 151.263C1244.79 149.688 1333.01 148.055 1419.44 140.295C1516.18 131.621 1601.21 115.986 1679.42 92.4932C1755.84 69.5258 1821.86 53.8316 1887.18 43.0966C1900.52 40.8991 1913.85 38.9349 1927.23 37.1457C1858.33 43.1939 1787.98 51.0702 1716.65 65.1501C1603.27 87.5147 1488.11 103.831 1354.22 116.491C1230.34 128.199 1102.54 135.453 989.768 141.87C916.497 146.032 838.755 145.643 752.089 140.703C674.755 136.289 597.42 128.724 522.652 121.412C422.184 111.591 318.41 101.439 211.935 98.5997ZM-561.525 -10.2672C-547.878 7.33276 -532.384 23.163 -515.49 36.7957C-499.335 49.8449 -481.352 61.28 -462.067 70.8093C-426.569 88.3509 -386.113 99.9805 -338.387 106.379C-250.01 118.242 -151.583 109.782 -56.4025 101.595C-38.2256 100.039 -20.2431 98.483 -2.49396 97.0828C-78.7396 96.9078 -156.404 96.0326 -231.795 90.8985C-291.555 86.834 -346.027 62.5247 -398.691 39.0322C-453.377 14.6451 -505.011 -8.40023 -561.525 -10.2672ZM7.34296 96.7327C19.4543 96.7522 31.5269 96.7522 43.5411 96.7522C96.4193 96.7717 151.105 96.791 204.295 98.0162C204.956 98.0357 205.597 98.0552 206.258 98.0552C146.692 88.7398 79.1172 91.2875 7.34296 96.7327ZM2043.83 27.3637C2011.13 28.7834 1979.06 31.3309 1947.25 35.0454C1967.22 33.3729 1987.05 31.8172 2006.72 30.2808C2019.01 29.3279 2031.39 28.375 2043.83 27.3637ZM2402.26 -53.5572C2363.86 -53.5572 2299.34 -29.5979 2245.49 -9.58645C2210.5 3.40445 2180.28 14.6451 2164.95 16.3953C2130.24 20.3626 2095.6 23.4936 2061.45 26.3329C2073.91 25.944 2086.45 25.7301 2099.12 25.6523C2152.56 25.3801 2209.27 9.10246 2264.13 -6.64998C2325.16 -24.1721 2382.82 -40.7219 2434.86 -36.3074C2433.36 -42.0444 2429.86 -46.42 2424.48 -49.2593C2418.8 -52.2348 2411.24 -53.5572 2402.26 -53.5572Z" fill="url(#paint8_linear_93_394)"/>
<path d="M709.767 216.938C667.425 216.938 626.25 214.332 584.687 209.139C483.577 196.537 385.869 169.661 268.662 135.822C180.908 110.482 65.1783 121.139 -57.3551 132.419C-156.618 141.559 -259.245 151.011 -349.76 140.684C-398.633 135.103 -439.575 124.387 -474.956 107.896C-494.183 98.9303 -511.893 88.0981 -527.601 75.7101C-544.126 62.6803 -558.998 47.4529 -571.809 30.4947L-572.1 30.1058L-571.614 30.1835C-525.346 38.4487 -482.81 50.02 -441.674 61.2217C-372.194 80.1246 -306.563 97.9969 -227.557 99.8055C-176.914 100.972 -123.667 99.1053 -72.1882 97.2967C49.0038 93.0377 174.337 88.662 288.569 121.217C327.314 132.263 362.56 144.982 396.658 157.273C473.759 185.083 546.583 211.356 643.319 211.901C644.719 211.901 646.119 211.92 647.518 211.92C722.772 211.92 797.502 200.446 869.82 189.342C931.525 179.871 995.348 170.069 1059.19 167.444C1190.67 162.037 1312.71 151.302 1432.31 134.655C1548.68 118.456 1665.19 96.5771 1798.96 65.8113C1832.01 58.2073 1980.96 35.1621 2130.21 17.7372C2212.19 8.16907 2279.18 2.02367 2329.34 -0.504503C2389.5 -3.53831 2423.02 -1.18519 2428.93 6.516L2429.16 6.80776L2428.79 6.82723C1993.66 28.3945 1800.28 69.6813 1680.43 103.228C1611.03 122.656 1536.01 137.203 1451.07 147.685C1375.22 157.039 1298.21 162.426 1223.73 167.638C1123.56 174.639 1019.96 181.893 914.942 198.91C840.31 210.987 773.707 216.938 709.767 216.938ZM134.289 119.914C189.228 119.914 232.269 124.912 268.759 135.453C385.966 169.291 483.635 196.168 584.726 208.77C689.063 221.76 790.873 218.61 914.845 198.501C1019.88 181.485 1123.48 174.231 1223.68 167.23C1298.15 162.018 1375.16 156.631 1450.99 147.277C1535.91 136.795 1610.91 122.248 1680.29 102.82C1908.39 38.9544 2199.84 17.7567 2428.36 6.41879C2421.91 -0.932352 2388.59 -3.14937 2329.34 -0.154463C2279.18 2.37371 2212.21 8.51911 2130.24 18.0873C1981.04 35.5122 1832.09 58.5574 1799.06 66.1613C1665.29 96.9272 1548.76 118.825 1432.37 135.025C1312.75 151.672 1190.71 162.407 1059.21 167.813C995.387 170.439 931.583 180.24 869.879 189.711C797.541 200.816 722.792 212.29 647.518 212.29C646.119 212.29 644.719 212.29 643.319 212.27C546.525 211.726 473.662 185.433 396.542 157.623C362.443 145.332 327.197 132.613 288.472 121.567C174.298 89.0316 49.0039 93.4072 -72.1687 97.6662C-123.667 99.4748 -176.934 101.342 -227.557 100.175C-306.602 98.3664 -372.252 80.4941 -441.771 61.5717C-482.752 50.4283 -525.113 38.8961 -571.187 30.6309C-558.453 47.414 -543.717 62.4664 -527.348 75.3795C-511.66 87.7675 -493.969 98.5803 -474.781 107.526C-439.458 123.998 -398.536 134.714 -349.721 140.295C-259.245 150.622 -156.638 141.17 -57.3939 132.03C4.36853 126.351 62.7094 120.964 118.134 120.05C123.636 119.972 129.021 119.914 134.289 119.914Z" fill="url(#paint9_linear_93_394)"/>
<path d="M532.703 290.877C508.597 290.877 484.51 289.36 460.481 285.918C387.599 275.474 342.361 244.767 294.479 212.251C272.122 197.062 249.202 181.504 222.705 167.541C204.392 161.707 185.593 156.592 166.016 152.1C131.937 144.282 96.322 138.545 57.0911 134.597C22.9924 131.155 -11.4755 129.327 -45.8657 128.374C-83.0943 132.069 -120.595 137.67 -157.318 143.154C-232.864 154.414 -310.976 166.063 -382.983 160.423C-421.728 157.389 -455.788 149.727 -487.126 137.008C-522.255 122.754 -553.127 102.548 -581.49 75.2433L-582.19 74.5821L-581.296 74.9127C-519.553 98.3274 -451.414 113.244 -372.971 120.517C-303.025 127.012 -231.522 126.973 -162.373 126.935C-124.036 126.915 -84.9995 126.896 -45.8852 127.985C-23.1982 125.729 -0.608337 124.173 21.6511 123.765C53.3391 123.201 81.7222 124.951 108.472 129.113C138.527 133.8 165.725 141.404 191.619 152.352C202.623 157 212.984 161.979 222.86 167.171C240.318 172.733 257.348 178.937 274.144 185.88C330.463 209.12 385.927 225.592 443.724 236.21C495.552 245.739 548.411 250.368 605.196 250.368C606.46 250.368 607.704 250.368 608.968 250.368C722.889 249.959 840.679 230.278 951.568 210.17C1057.77 190.897 1162.05 183.955 1262.89 177.245C1332.12 172.636 1403.7 167.872 1474.34 159.159C1553.46 149.396 1623.47 135.511 1688.4 116.744C1725.79 105.931 1900.26 67.756 2068.68 42.8633C2217.98 20.7904 2400.78 3.4433 2423.7 46.1499L2423.84 46.4027L2423.54 46.4417C2356.86 53.9484 2292.14 59.8798 2229.55 65.6168C2028.67 84.053 1838.93 101.459 1631.71 166.277C1571.62 185.083 1505.17 197.023 1428.58 202.799C1360.21 207.953 1289.93 207.855 1221.93 207.758C1101.59 207.583 977.171 207.389 854.618 235.821C838.657 239.516 822.288 243.444 806.444 247.256C716.746 268.784 624.656 290.877 532.703 290.877ZM224.785 168.222C250.505 181.932 272.861 197.121 294.693 211.939C342.555 244.436 387.754 275.105 460.54 285.548C576.23 302.117 693.203 274.035 806.328 246.887C822.152 243.094 838.541 239.166 854.501 235.452C967.373 209.275 1081.84 207.35 1193.21 207.35C1202.8 207.35 1212.36 207.369 1221.91 207.369C1289.87 207.467 1360.17 207.583 1428.52 202.41C1505.08 196.634 1571.51 184.694 1631.56 165.907C1838.81 101.07 2028.57 83.664 2229.47 65.2279C2291.97 59.4909 2356.61 53.5594 2423.17 46.0722C2399.77 3.89063 2217.57 21.2183 2068.7 43.2328C1900.32 68.1255 1725.86 106.301 1688.48 117.114C1623.55 135.88 1553.5 149.766 1474.36 159.548C1403.7 168.28 1332.12 173.045 1262.89 177.634C1162.05 184.344 1057.79 191.286 951.606 210.539C840.718 230.667 722.909 250.348 608.948 250.757C607.685 250.757 606.421 250.757 605.177 250.757C548.372 250.757 495.474 246.109 443.626 236.579C385.81 225.961 330.308 209.489 273.969 186.23C257.834 179.598 241.523 173.609 224.785 168.222ZM-42.8136 128.063C-9.41479 129.054 24.0228 130.863 57.1299 134.208C96.3608 138.175 132.015 143.893 166.094 151.73C184.932 156.047 203.07 160.968 220.722 166.53C211.449 161.707 201.748 157.078 191.464 152.722C165.608 141.792 138.43 134.189 108.414 129.502C81.6833 125.34 53.3196 123.59 21.6705 124.154C0.402588 124.543 -21.1569 125.982 -42.8136 128.063ZM-580.557 75.6129C-552.427 102.548 -521.808 122.52 -487.009 136.639C-455.71 149.338 -421.689 156.981 -382.983 160.015C-311.015 165.655 -232.922 154.025 -157.415 142.765C-121.684 137.436 -85.1938 131.991 -48.9568 128.296C-87.0602 127.285 -125.066 127.304 -162.412 127.324C-231.581 127.362 -303.083 127.401 -373.03 120.906C-451.103 113.652 -519.008 98.8331 -580.557 75.6129Z" fill="url(#paint10_linear_93_394)"/>
</g>
</g>
<defs>
<linearGradient id="paint0_linear_93_394" x1="1074.34" y1="-582.442" x2="1074.34" y2="8.24684" gradientUnits="userSpaceOnUse">
<stop offset="0.0812499" stop-color="white"/>
<stop offset="0.482292" stop-color="white" stop-opacity="0.3"/>
<stop offset="1" stop-color="white"/>
</linearGradient>
<linearGradient id="paint1_linear_93_394" x1="1063.53" y1="-535.614" x2="1063.53" y2="50.6034" gradientUnits="userSpaceOnUse">
<stop offset="0.0812499" stop-color="white"/>
<stop offset="0.482292" stop-color="white" stop-opacity="0.3"/>
<stop offset="1" stop-color="white"/>
</linearGradient>
<linearGradient id="paint2_linear_93_394" x1="1046.53" y1="-488.793" x2="1046.53" y2="54.5513" gradientUnits="userSpaceOnUse">
<stop offset="0.0812499" stop-color="white"/>
<stop offset="0.482292" stop-color="white" stop-opacity="0.3"/>
<stop offset="1" stop-color="white"/>
</linearGradient>
<linearGradient id="paint3_linear_93_394" x1="1020.8" y1="-422.972" x2="1020.8" y2="61.4745" gradientUnits="userSpaceOnUse">
<stop offset="0.0812499" stop-color="white"/>
<stop offset="0.482292" stop-color="white" stop-opacity="0.3"/>
<stop offset="1" stop-color="white"/>
</linearGradient>
<linearGradient id="paint4_linear_93_394" x1="992.824" y1="-345.369" x2="992.824" y2="77.5769" gradientUnits="userSpaceOnUse">
<stop offset="0.0812499" stop-color="white"/>
<stop offset="0.482292" stop-color="white" stop-opacity="0.3"/>
<stop offset="1" stop-color="white"/>
</linearGradient>
<linearGradient id="paint5_linear_93_394" x1="962.672" y1="-304.122" x2="962.672" y2="88.6621" gradientUnits="userSpaceOnUse">
<stop offset="0.0812499" stop-color="white"/>
<stop offset="0.482292" stop-color="white" stop-opacity="0.3"/>
<stop offset="1" stop-color="white"/>
</linearGradient>
<linearGradient id="paint6_linear_93_394" x1="946.97" y1="-216.38" x2="946.97" y2="111.591" gradientUnits="userSpaceOnUse">
<stop offset="0.0812499" stop-color="white"/>
<stop offset="0.482292" stop-color="white" stop-opacity="0.3"/>
<stop offset="1" stop-color="white"/>
</linearGradient>
<linearGradient id="paint7_linear_93_394" x1="941.089" y1="-88.4586" x2="941.089" y2="132.73" gradientUnits="userSpaceOnUse">
<stop offset="0.0812499" stop-color="white"/>
<stop offset="0.482292" stop-color="white" stop-opacity="0.3"/>
<stop offset="1" stop-color="white"/>
</linearGradient>
<linearGradient id="paint8_linear_93_394" x1="936.511" y1="-53.9279" x2="936.511" y2="170.341" gradientUnits="userSpaceOnUse">
<stop offset="0.0812499" stop-color="white"/>
<stop offset="0.482292" stop-color="white" stop-opacity="0.3"/>
<stop offset="1" stop-color="white"/>
</linearGradient>
<linearGradient id="paint9_linear_93_394" x1="928.531" y1="-1.7868" x2="928.531" y2="216.938" gradientUnits="userSpaceOnUse">
<stop offset="0.0812499" stop-color="white"/>
<stop offset="0.482292" stop-color="white" stop-opacity="0.3"/>
<stop offset="1" stop-color="white"/>
</linearGradient>
<linearGradient id="paint10_linear_93_394" x1="920.823" y1="19.9365" x2="920.823" y2="290.877" gradientUnits="userSpaceOnUse">
<stop offset="0.0812499" stop-color="white"/>
<stop offset="0.482292" stop-color="white" stop-opacity="0.3"/>
<stop offset="1" stop-color="white"/>
</linearGradient>
</defs>
</svg>
